<svg xmlns="http://www.w3.org/2000/svg" xmlns:xlink="http://www.w3.org/1999/xlink" width="114.598" height="36.643" viewBox="0 0 114.598 36.643"><defs><style>.a{fill:none;}.b{fill:#fff;}.c{clip-path:url(#a);}.d{fill:url(#b);}.e{fill:url(#c);}.f{fill:url(#d);}.g{fill:url(#e);}</style><clipPath id="a"><path class="a" d="M151.245,338.736l-5.167-2.916-9.967-5.625c-.553-.312-1.1-.123-1.1.53v22.919c0,.489.394.7.875.429l10.2-5.755,5.167-2.916,4.967-2.8c.583-.329.527-.781.035-1.039S151.245,338.736,151.245,338.736Z" transform="translate(-135.006 -330.047)"/></clipPath><linearGradient id="b" x1="0.5" x2="0.5" y2="1" gradientUnits="objectBoundingBox"><stop offset="0" stop-color="#006aa2"/><stop offset="0.345" stop-color="#2f8da6"/><stop offset="0.786" stop-color="#66b6ac"/><stop offset="1" stop-color="#7cc6af"/></linearGradient><linearGradient id="c" y1="0.5" x2="1" y2="0.5" gradientUnits="objectBoundingBox"><stop offset="0" stop-color="#4ab59d"/><stop offset="1" stop-color="#dfe385"/></linearGradient><linearGradient id="d" x1="0.5" x2="0.5" y2="1" gradientUnits="objectBoundingBox"><stop offset="0" stop-color="#e4282d"/><stop offset="0.316" stop-color="#ba2d4e"/><stop offset="0.777" stop-color="#83357b"/><stop offset="1" stop-color="#6e388d"/></linearGradient><linearGradient id="e" x1="0.5" x2="0.5" y2="1" gradientUnits="objectBoundingBox"><stop offset="0" stop-color="#f07165"/><stop offset="0.659" stop-color="#faa460"/><stop offset="1" stop-color="#ffba5e"/></linearGradient></defs><g transform="translate(0.001 0)"><path class="b" d="M211.239,327.764a5.01,5.01,0,0,1-5.065,4.952H101.707a5.011,5.011,0,0,1-5.066-4.952V301.026a5.01,5.01,0,0,1,5.066-4.952H206.174a5.01,5.01,0,0,1,5.065,4.952Z" transform="translate(-96.642 -296.075)"/><g transform="translate(8.595 7.44)"><g class="c"><path class="d" d="M135.006,328.285V353.1l12.8-12.407Z" transform="translate(-135.006 -328.671)"/><path class="e" d="M151.245,337.038l-5.167-2.916-11.072-6.249v.09l12.8,12.407Z" transform="translate(-135.006 -328.349)"/><path class="f" d="M135.006,397.344v.09l11.072-6.249,5.167-2.916-3.438-3.332Z" transform="translate(-135.006 -372.916)"/><path class="g" d="M195.578,369.721l-3.438,3.333,3.438,3.332,5.905-3.332Z" transform="translate(-179.339 -361.032)"/></g></g><g transform="translate(85.75 13.935)"><path d="M482.8,380.412a3.256,3.256,0,0,1-1.317-.26,2.471,2.471,0,0,1-1-.8H480.4a9.484,9.484,0,0,1,.081,1.2v2.969h-1.118V373.064h.909l.155.988h.054a2.583,2.583,0,0,1,1-.856,3.109,3.109,0,0,1,1.313-.263,2.756,2.756,0,0,1,2.267.981,5.126,5.126,0,0,1-.013,5.515A2.762,2.762,0,0,1,482.8,380.412Zm-.162-6.551a2.005,2.005,0,0,0-1.636.612,3.1,3.1,0,0,0-.519,1.949v.243a3.547,3.547,0,0,0,.519,2.176,1.994,1.994,0,0,0,1.664.655,1.743,1.743,0,0,0,1.5-.757,3.531,3.531,0,0,0,.542-2.088,3.4,3.4,0,0,0-.542-2.071A1.8,1.8,0,0,0,482.641,373.86Z" transform="translate(-479.368 -370.035)"/><path d="M516.062,369.948h-1.118V359.7h1.118Z" transform="translate(-506.973 -359.703)"/><path d="M530.99,380.327l-.222-1.027h-.054a3.081,3.081,0,0,1-1.1.919,3.413,3.413,0,0,1-1.37.24,2.5,2.5,0,0,1-1.721-.553,1.992,1.992,0,0,1-.623-1.573q0-2.186,3.577-2.292l1.253-.04v-.447a1.8,1.8,0,0,0-.374-1.254,1.557,1.557,0,0,0-1.2-.405,4.957,4.957,0,0,0-2.088.553l-.344-.836a5.479,5.479,0,0,1,2.5-.619,2.856,2.856,0,0,1,1.957.573,2.361,2.361,0,0,1,.636,1.837v4.925Zm-2.526-.77a2.3,2.3,0,0,0,1.64-.56,2.046,2.046,0,0,0,.6-1.568v-.652l-1.119.046a4.144,4.144,0,0,0-1.923.406,1.214,1.214,0,0,0-.589,1.116,1.112,1.112,0,0,0,.367.9A1.545,1.545,0,0,0,528.464,379.557Z" transform="translate(-515.472 -370.082)"/><path d="M555.222,373.533h1.2l1.617,4.115a15.429,15.429,0,0,1,.66,2.035h.054q.087-.336.367-1.15t1.829-5h1.2l-3.173,8.217a4.088,4.088,0,0,1-1.1,1.729,2.377,2.377,0,0,1-1.546.51,4.62,4.62,0,0,1-1.011-.112V383a4,4,0,0,0,.829.079,1.7,1.7,0,0,0,1.644-1.264l.411-1.027Z" transform="translate(-538.227 -370.504)"/></g><g transform="translate(34.776 13.128)"><path d="M382.3,374.657a2.43,2.43,0,0,1-.2,4.181,1.057,1.057,0,0,0-.432.741.826.826,0,0,0,.4.649l.556.422a2.62,2.62,0,0,1,1.3,2.114c0,1.419-1.405,2.852-4.061,2.852-2.239,0-3.32-1.041-3.32-2.159a2.165,2.165,0,0,1,1.189-1.841,6.783,6.783,0,0,1,2.949-.695,1.564,1.564,0,0,1-.464-1.025,1.338,1.338,0,0,1,.155-.59c-.171.016-.34.03-.495.03a2.416,2.416,0,0,1-2.563-2.369,2.691,2.691,0,0,1,.988-2.023,4.279,4.279,0,0,1,2.765-.83h3.18l-.989.544Zm-1.1,6.7a2.448,2.448,0,0,0-.355-.016,6.309,6.309,0,0,0-1.622.243,1.71,1.71,0,0,0-1.328,1.554c0,1.071,1.066,1.842,2.718,1.842,1.482,0,2.27-.7,2.27-1.631C382.89,382.58,382.38,382.174,381.206,381.359Zm.448-2.868a1.5,1.5,0,0,0,.385-1.1c0-1.087-.664-2.777-1.945-2.777a1.456,1.456,0,0,0-1.081.5,1.716,1.716,0,0,0-.34,1.117c0,1.011.6,2.687,1.931,2.687A1.6,1.6,0,0,0,381.654,378.491Z" transform="translate(-348.607 -370.15)"/><path d="M345.834,380.353a3.6,3.6,0,0,1-3.761-3.557,3.783,3.783,0,0,1,3.993-3.661,3.564,3.564,0,0,1,3.684,3.556A3.726,3.726,0,0,1,345.834,380.353Zm1.927-1.221a2.68,2.68,0,0,0,.463-1.673c0-1.327-.647-3.858-2.559-3.858a2.176,2.176,0,0,0-1.387.513,2.252,2.252,0,0,0-.71,1.839c0,1.491.756,3.946,2.621,3.946A1.985,1.985,0,0,0,347.761,379.133Z" transform="translate(-321.86 -369.386)"/><path d="M308.538,380.353a3.6,3.6,0,0,1-3.762-3.557,3.783,3.783,0,0,1,3.993-3.661,3.564,3.564,0,0,1,3.684,3.556A3.727,3.727,0,0,1,308.538,380.353Zm1.927-1.221a2.684,2.684,0,0,0,.463-1.673c0-1.327-.648-3.858-2.56-3.858a2.177,2.177,0,0,0-1.387.513,2.252,2.252,0,0,0-.709,1.839c0,1.491.755,3.946,2.621,3.946A1.986,1.986,0,0,0,310.465,379.133Z" transform="translate(-292.919 -369.386)"/><path d="M262.535,367.953l-2.217.5a16.789,16.789,0,0,1-2.557.257c-4.278,0-5.905-3.076-5.905-5.485,0-2.939,2.309-5.665,6.262-5.665a9.115,9.115,0,0,1,2.371.318,6.1,6.1,0,0,1,2.046.939l-1.287,1.2-.542.12.387-.606a4.471,4.471,0,0,0-3.317-1.424,4.228,4.228,0,0,0-4.294,4.47,5.415,5.415,0,0,0,5.487,5.529,4.707,4.707,0,0,0,1.969-.379v-2.439l-2.34.121,1.239-.652h3.286l-.4.379a.353.353,0,0,0-.155.242c-.016.137-.031.576-.031.728Z" transform="translate(-251.856 -357.223)"/><path d="M412.713,366.313c-.512-.045-.619-.136-.619-.727v-8.575c0-.033.005-.066.009-.1.063-.53.217-.621.7-.894h-2.217l-1.163.546h1.185v9.355c0,.3-.061.348-.418.8h2.744l.573-.332C413.241,366.358,412.977,366.343,412.713,366.313Z" transform="translate(-374.118 -356.019)"/><path d="M432.808,379.836c-.169.09-.338.2-.507.271a3.658,3.658,0,0,1-1.495.286,3.346,3.346,0,0,1-2.047-.587,3.862,3.862,0,0,1-1.569-3.175,3.453,3.453,0,0,1,3.525-3.475,3.045,3.045,0,0,1,1.586.422,2.49,2.49,0,0,1,1.076,1.489l-3.616,1.43-1.185.09a3.387,3.387,0,0,0,3.171,3.023,4.046,4.046,0,0,0,1.878-.526Zm-1.446-4.484c.292-.105.446-.2.446-.406a1.515,1.515,0,0,0-1.524-1.294,1.871,1.871,0,0,0-1.77,2.091c0,.256.031.527.047.8Z" transform="translate(-387.906 -369.403)"/><g transform="translate(45.928 3.753)"><path d="M457.305,373.259v.993h-.123v-.993h-.336v-.1h.8v.1Z" transform="translate(-456.846 -373.156)"/><path d="M462.145,374.252v-1h-.006l-.313,1h-.1l-.316-1h0v1H461.3v-1.1h.192l.286.886h0l.281-.886h.195v1.1Z" transform="translate(-460.301 -373.156)"/></g></g><g transform="translate(34.802 7.381)"><path d="M255.026,333.166h-.77a4.9,4.9,0,0,0-.219-.88h-1.112a4.462,4.462,0,0,0-.226.88h-.724q0-.092.562-1.506a11.657,11.657,0,0,0,.562-1.557h.91a12.8,12.8,0,0,0,.509,1.535A13.235,13.235,0,0,1,255.026,333.166Zm-1.112-1.329a13.084,13.084,0,0,1-.412-1.313h-.039a13.54,13.54,0,0,1-.426,1.313Z" transform="translate(-251.974 -330.032)"/><path d="M270.5,333.166h-.595a5.7,5.7,0,0,0-.662-1.019,5.575,5.575,0,0,1-.789-1.329h-.039a8.107,8.107,0,0,1,.06.932q0,.581.034,1.416h-.592q.036-.729.036-1.6t-.036-1.461h.715a4.4,4.4,0,0,0,.594.995,5.822,5.822,0,0,1,.727,1.254h.036a8.735,8.735,0,0,1-.058-.941q0-.637-.034-1.308h.6q-.034.583-.034,1.461T270.5,333.166Z" transform="translate(-264.347 -330.032)"/><path d="M285.848,331.478a1.712,1.712,0,0,1-.438,1.167,1.547,1.547,0,0,1-1.227.5q-.356,0-.982-.028.031-.711.031-1.6,0-.856-.031-1.461h.421q.1,0,.308-.007c.136,0,.225-.007.267-.007a1.644,1.644,0,0,1,1.26.424A1.445,1.445,0,0,1,285.848,331.478Zm-.657.1a1.117,1.117,0,0,0-.27-.761,1.034,1.034,0,0,0-.823-.309,2.61,2.61,0,0,0-.284.021q.024.471.024.983,0,.562.024,1.115a1.631,1.631,0,0,0,.313.031.919.919,0,0,0,.766-.314A1.194,1.194,0,0,0,285.19,331.579Z" transform="translate(-276.204 -329.981)"/><path d="M300.588,333.115h-.712a4.564,4.564,0,0,0-.428-1.028.567.567,0,0,0-.481-.2l-.267,0q0,.6.022,1.221h-.669q.031-.711.031-1.6,0-.856-.031-1.461h.416q.072,0,.3-.007t.425-.007q1.1,0,1.1.739a.831.831,0,0,1-.631.816v.035a.747.747,0,0,1,.426.37A8.1,8.1,0,0,1,300.588,333.115Zm-.9-2.164q0-.468-.616-.468a2.146,2.146,0,0,0-.4.033q.027.365.027.951.132,0,.224,0Q299.685,331.471,299.685,330.951Z" transform="translate(-287.727 -329.981)"/><path d="M314.161,331.326a1.668,1.668,0,0,1-.452,1.2,1.485,1.485,0,0,1-1.119.475,1.43,1.43,0,0,1-1.064-.437,1.517,1.517,0,0,1-.428-1.109,1.667,1.667,0,0,1,.452-1.2,1.484,1.484,0,0,1,1.119-.475,1.432,1.432,0,0,1,1.064.435A1.516,1.516,0,0,1,314.161,331.326Zm-.664.068a1.2,1.2,0,0,0-.258-.8.8.8,0,0,0-.635-.306.739.739,0,0,0-.6.308,1.211,1.211,0,0,0-.246.779,1.193,1.193,0,0,0,.259.8.8.8,0,0,0,.634.307.738.738,0,0,0,.6-.309A1.212,1.212,0,0,0,313.5,331.394Z" transform="translate(-297.85 -329.78)"/><path d="M328.486,333.166h-.681q.031-.729.031-1.6t-.031-1.461h.681q-.031.593-.031,1.461Q328.455,332.451,328.486,333.166Z" transform="translate(-310.815 -330.032)"/><path d="M337.246,331.478a1.712,1.712,0,0,1-.438,1.167,1.547,1.547,0,0,1-1.227.5q-.356,0-.982-.028.031-.711.031-1.6,0-.856-.031-1.461h.421q.1,0,.308-.007t.267-.007a1.644,1.644,0,0,1,1.26.424A1.446,1.446,0,0,1,337.246,331.478Zm-.657.1a1.119,1.119,0,0,0-.27-.761,1.034,1.034,0,0,0-.823-.309,2.605,2.605,0,0,0-.284.021q.024.471.024.983,0,.562.024,1.115a1.631,1.631,0,0,0,.313.031.919.919,0,0,0,.767-.314A1.194,1.194,0,0,0,336.589,331.579Z" transform="translate(-316.087 -329.981)"/><path d="M356.5,333.166h-.77a4.867,4.867,0,0,0-.219-.88H354.4a4.452,4.452,0,0,0-.226.88h-.724q0-.092.562-1.506a11.634,11.634,0,0,0,.562-1.557h.91a12.777,12.777,0,0,0,.509,1.535A13.271,13.271,0,0,1,356.5,333.166Zm-1.112-1.329a13.13,13.13,0,0,1-.412-1.313h-.038a13.542,13.542,0,0,1-.426,1.313Z" transform="translate(-330.714 -330.032)"/><path d="M371.683,330.854a.911.911,0,0,1-.427.83,1.933,1.933,0,0,1-1.048.268q-.113,0-.161,0,0,.442.026,1.167H369.4q.031-.68.031-1.6,0-.847-.031-1.461h.419q.089,0,.342-.007t.438-.007a1.4,1.4,0,0,1,.773.2A.68.68,0,0,1,371.683,330.854Zm-.621.129q0-.5-.684-.5a1.967,1.967,0,0,0-.361.035q.027.444.026,1.007c.04,0,.087,0,.14,0Q371.062,331.527,371.062,330.984Z" transform="translate(-343.087 -329.981)"/><path d="M384.566,330.854a.911.911,0,0,1-.427.83,1.935,1.935,0,0,1-1.048.268c-.076,0-.129,0-.161,0q0,.442.026,1.167h-.676q.031-.68.031-1.6,0-.847-.031-1.461h.419q.089,0,.342-.007t.438-.007a1.4,1.4,0,0,1,.773.2A.68.68,0,0,1,384.566,330.854Zm-.621.129q0-.5-.684-.5a1.967,1.967,0,0,0-.361.035q.027.444.026,1.007c.04,0,.087,0,.139,0Q383.946,331.527,383.946,330.984Z" transform="translate(-353.085 -329.981)"/><path d="M402.939,331.326a1.667,1.667,0,0,1-.453,1.2,1.484,1.484,0,0,1-1.119.475,1.43,1.43,0,0,1-1.064-.437,1.518,1.518,0,0,1-.428-1.109,1.668,1.668,0,0,1,.452-1.2,1.485,1.485,0,0,1,1.119-.475,1.432,1.432,0,0,1,1.064.435A1.517,1.517,0,0,1,402.939,331.326Zm-.664.068a1.2,1.2,0,0,0-.258-.8.8.8,0,0,0-.635-.306.739.739,0,0,0-.6.308,1.211,1.211,0,0,0-.245.779,1.194,1.194,0,0,0,.259.8.8.8,0,0,0,.634.307.737.737,0,0,0,.6-.309A1.211,1.211,0,0,0,402.275,331.394Z" transform="translate(-366.737 -329.78)"/><path d="M419.166,333.166h-.594a5.7,5.7,0,0,0-.662-1.019,5.578,5.578,0,0,1-.79-1.329h-.038a8.165,8.165,0,0,1,.06.932q0,.581.034,1.416h-.592q.036-.729.036-1.6t-.036-1.461h.715a4.406,4.406,0,0,0,.595.995,5.82,5.82,0,0,1,.727,1.254h.036a8.67,8.67,0,0,1-.058-.941q0-.637-.034-1.308h.6q-.034.583-.034,1.461T419.166,333.166Z" transform="translate(-379.703 -330.032)"/></g></g></svg>