<svg xmlns="http://www.w3.org/2000/svg" width="114.397" height="36.578" viewBox="0 0 114.397 36.578"><defs><style>.a{fill:#fff;}</style></defs><g transform="translate(0 0)"><path class="a" d="M211.038,967.46a5,5,0,0,1-5.056,4.943H101.7a5,5,0,0,1-5.057-4.943V940.768a5,5,0,0,1,5.057-4.943H205.982a5,5,0,0,1,5.056,4.943Z" transform="translate(-96.641 -935.824)"/><g transform="translate(7.674 5.687)"><path d="M153.8,1002.476a17.981,17.981,0,0,1-1.675,3.057c-1.088,1.619-2.621,3.635-4.521,3.652-1.689.015-2.122-1.074-4.413-1.062s-2.77,1.081-4.458,1.066c-1.9-.017-3.353-1.838-4.441-3.457-3.042-4.527-3.36-9.84-1.484-12.664a6.76,6.76,0,0,1,5.415-3.182c2.014,0,3.28,1.08,4.945,1.08,1.615,0,2.6-1.081,4.927-1.081a6.619,6.619,0,0,1,4.953,2.557A5.49,5.49,0,0,0,153.8,1002.476Z" transform="translate(-131.637 -983.984)"/><g transform="translate(10.65 0)"><path d="M184.243,966.447a5.441,5.441,0,0,0,1.255-4.092,6.149,6.149,0,0,0-3.942,2.073,5.054,5.054,0,0,0-1.288,3.992A5.194,5.194,0,0,0,184.243,966.447Z" transform="translate(-180.207 -962.355)"/></g></g><g transform="translate(34.742 5.741)"><g transform="translate(0 8.762)"><path d="M259.44,1004.42l-4.358,12.54h2l1.3-3.85h4.22l1.338,3.85h2.051l-4.377-12.54Zm1.034,2.062c.147.56.306,1.141.51,1.769l1.174,3.325h-3.343l1.158-3.347C260.151,1007.687,260.318,1007.1,260.474,1006.482Z" transform="translate(-255.082 -1004.22)"/><path d="M312.952,1019.586a3.662,3.662,0,0,0-3.086,1.447l-.077-1.247h-1.775l.011.16c.052.777.074,1.632.074,2.86v9.665h1.941v-4.51a3.444,3.444,0,0,0,2.653,1.115,4.047,4.047,0,0,0,2.941-1.222,5.112,5.112,0,0,0,1.3-3.649,4.974,4.974,0,0,0-1.128-3.332A3.729,3.729,0,0,0,312.952,1019.586Zm-.484,1.571c1.73,0,2.5,1.567,2.5,3.12,0,2-.988,3.246-2.578,3.246a2.343,2.343,0,0,1-2.287-1.761,2.37,2.37,0,0,1-.069-.614v-1.526a2.788,2.788,0,0,1,.062-.468c.01-.052.02-.1.028-.154A2.446,2.446,0,0,1,312.469,1021.157Z" transform="translate(-296.407 -1016.135)"/><path d="M358.534,1019.586a3.664,3.664,0,0,0-3.086,1.447l-.077-1.247H353.6l.01.16c.053.778.075,1.632.075,2.86v9.665h1.941v-4.51a3.443,3.443,0,0,0,2.652,1.115,4.052,4.052,0,0,0,2.942-1.222,5.119,5.119,0,0,0,1.3-3.649,4.975,4.975,0,0,0-1.128-3.332A3.727,3.727,0,0,0,358.534,1019.586Zm-.483,1.571c1.729,0,2.5,1.567,2.5,3.12,0,2-.989,3.246-2.578,3.246a2.343,2.343,0,0,1-2.287-1.761,2.369,2.369,0,0,1-.068-.614v-1.526a2.759,2.759,0,0,1,.062-.47c.01-.051.019-.1.028-.152A2.445,2.445,0,0,1,358.051,1021.157Z" transform="translate(-331.994 -1016.135)"/><path d="M416.766,1009c-1.811-.686-2.392-1.225-2.392-2.221,0-.839.682-1.685,2.206-1.685a4.486,4.486,0,0,1,2.279.559l.164.1.548-1.583-.108-.062a5.727,5.727,0,0,0-2.826-.62c-2.475,0-4.2,1.428-4.2,3.473,0,1.649,1.083,2.8,3.407,3.627,1.647.6,2.26,1.218,2.26,2.275,0,1.2-.946,1.938-2.467,1.938a5.4,5.4,0,0,1-2.8-.775l-.168-.105-.521,1.62.1.062a6.767,6.767,0,0,0,3.28.824c3.336,0,4.519-1.988,4.519-3.691C420.04,1010.981,419.091,1009.9,416.766,1009Z" transform="translate(-377.705 -1003.488)"/><path d="M452.342,1010.439l-1.9.584v1.576h-1.393v1.516h1.393v4.645a3.494,3.494,0,0,0,.672,2.407,2.518,2.518,0,0,0,1.878.721,4.672,4.672,0,0,0,1.5-.226l.109-.038-.093-1.519-.186.056a2.987,2.987,0,0,1-.9.1c-.752,0-1.073-.465-1.073-1.557v-4.59h2.341V1012.6h-2.341Z" transform="translate(-406.514 -1008.949)"/><path d="M480.274,1019.586a4.514,4.514,0,0,0-4.612,4.817,4.373,4.373,0,0,0,4.464,4.672h.018a4.522,4.522,0,0,0,4.612-4.835,4.73,4.73,0,0,0-1.237-3.356A4.369,4.369,0,0,0,480.274,1019.586Zm-.056,1.5c1.746,0,2.541,1.664,2.541,3.211,0,1.9-1.085,3.282-2.578,3.282h-.019c-1.472,0-2.54-1.357-2.54-3.227C477.622,1022.724,478.425,1021.084,480.218,1021.084Z" transform="translate(-427.294 -1016.135)"/><path d="M527.042,1019.674l-.116-.029a1.916,1.916,0,0,0-.482-.059,2.774,2.774,0,0,0-2.434,1.527l-.057-1.328h-1.742l.011.16c.052.751.073,1.594.073,2.732l-.018,6.2h1.941v-4.835a4.79,4.79,0,0,1,.053-.735,2.126,2.126,0,0,1,2.042-1.912,5.081,5.081,0,0,1,.521.032l.208.021Z" transform="translate(-463.637 -1016.135)"/><path d="M548.519,1019.5c-2.584,0-4.388,2.018-4.388,4.907a4.29,4.29,0,0,0,4.574,4.581,7.591,7.591,0,0,0,3.073-.576l.117-.052-.373-1.414-.162.064a6.137,6.137,0,0,1-2.432.425,2.677,2.677,0,0,1-2.907-2.751l6.265.018.025-.121a4.126,4.126,0,0,0,.058-.792C552.37,1021.813,551.361,1019.5,548.519,1019.5Zm-.129,1.443a1.939,1.939,0,0,1,1.425.531,2.663,2.663,0,0,1,.669,1.766h-4.427A2.449,2.449,0,0,1,548.39,1020.945Z" transform="translate(-480.75 -1016.07)"/></g><g transform="translate(0 0)"><path d="M255.082,964a14.488,14.488,0,0,1,1.862-.123,4.223,4.223,0,0,1,2.733.731,2.573,2.573,0,0,1,.961,2.14,2.971,2.971,0,0,1-.971,2.307,4.576,4.576,0,0,1-2.993.854,13.776,13.776,0,0,1-1.592-.071Zm.881,5.257a6.384,6.384,0,0,0,.881.035c1.862.008,2.873-.916,2.873-2.518.01-1.418-.891-2.29-2.732-2.29a5.658,5.658,0,0,0-1.021.079Z" transform="translate(-255.082 -963.608)"/><path d="M286.386,975.9a2.166,2.166,0,0,1-2.322-2.192,2.227,2.227,0,0,1,2.4-2.263,2.149,2.149,0,0,1,2.332,2.184,2.236,2.236,0,0,1-2.4,2.272Zm.03-.581a1.529,1.529,0,0,0,1.472-1.664,1.477,1.477,0,1,0-1.482,1.664Z" transform="translate(-277.709 -969.547)"/><path d="M308.8,971.891l.651,2.158c.13.475.26.925.35,1.365h.03c.11-.432.27-.889.43-1.356l.791-2.166h.741l.751,2.131c.18.5.32.96.43,1.391h.03a11.561,11.561,0,0,1,.37-1.383l.69-2.14h.871l-1.561,4.262h-.8l-.74-2.034a13.723,13.723,0,0,1-.431-1.409h-.02a11.512,11.512,0,0,1-.441,1.418l-.78,2.025h-.8l-1.462-4.262Z" transform="translate(-296.318 -969.901)"/><path d="M343.868,972.69c0-.449-.01-.8-.04-1.153h.781l.05.7h.02a1.846,1.846,0,0,1,1.6-.792,1.64,1.64,0,0,1,1.711,1.814V975.8h-.88v-2.457c0-.687-.291-1.268-1.122-1.268a1.255,1.255,0,0,0-1.181.792,1.023,1.023,0,0,0-.06.361V975.8h-.881Z" transform="translate(-324.368 -969.547)"/><path d="M369.346,962.607h.881v6.252h-.881Z" transform="translate(-344.291 -962.607)"/><path d="M380.754,975.9a2.166,2.166,0,0,1-2.322-2.192,2.226,2.226,0,0,1,2.4-2.263,2.149,2.149,0,0,1,2.332,2.184,2.236,2.236,0,0,1-2.4,2.272Zm.03-.581a1.529,1.529,0,0,0,1.472-1.664,1.477,1.477,0,1,0-1.481,1.664Z" transform="translate(-351.385 -969.547)"/><path d="M407.15,974.777a6.272,6.272,0,0,0,.07,1.021h-.791l-.08-.537h-.03a1.88,1.88,0,0,1-1.481.634,1.31,1.31,0,0,1-1.481-1.224c0-1.03,1.041-1.594,2.912-1.585V973c0-.352-.11-1-1.1-.986a2.572,2.572,0,0,0-1.271.317l-.2-.52a3.475,3.475,0,0,1,1.6-.37c1.491,0,1.851.889,1.851,1.743Zm-.86-1.154c-.961-.018-2.052.132-2.052.96a.73.73,0,0,0,.821.74,1.223,1.223,0,0,0,1.191-.714.7.7,0,0,0,.04-.247Z" transform="translate(-370.844 -969.547)"/><path d="M430.03,962.607v5.151c0,.379.011.81.04,1.1h-.79l-.04-.74h-.02a1.823,1.823,0,0,1-1.641.837,2.053,2.053,0,0,1-2.082-2.166,2.147,2.147,0,0,1,2.172-2.289,1.68,1.68,0,0,1,1.462.643h.02v-2.536Zm-.881,3.725a1.2,1.2,0,0,0-1.311-1.224,1.47,1.47,0,0,0-1.452,1.638,1.426,1.426,0,0,0,1.431,1.584,1.308,1.308,0,0,0,1.291-.924,1.181,1.181,0,0,0,.04-.335Z" transform="translate(-388.128 -962.607)"/><path d="M463.242,975.9a2.166,2.166,0,0,1-2.322-2.192,2.227,2.227,0,0,1,2.4-2.263,2.149,2.149,0,0,1,2.332,2.184,2.236,2.236,0,0,1-2.4,2.272Zm.03-.581a1.529,1.529,0,0,0,1.471-1.664,1.477,1.477,0,1,0-1.481,1.664Z" transform="translate(-415.785 -969.547)"/><path d="M487.438,972.69c0-.449-.01-.8-.04-1.153h.781l.05.7h.02a1.847,1.847,0,0,1,1.6-.792,1.64,1.64,0,0,1,1.712,1.814V975.8h-.881v-2.457c0-.687-.29-1.268-1.121-1.268a1.257,1.257,0,0,0-1.181.792,1.027,1.027,0,0,0-.06.361V975.8h-.881Z" transform="translate(-436.457 -969.547)"/><path d="M521.7,967.127v1.021h1.261v.59H521.7v2.3c0,.528.17.828.661.828a1.855,1.855,0,0,0,.51-.053l.04.59a2.7,2.7,0,0,1-.781.106,1.352,1.352,0,0,1-.951-.326,1.524,1.524,0,0,1-.34-1.119v-2.325h-.751v-.59h.751v-.784Z" transform="translate(-461.976 -966.158)"/><path d="M537.7,962.607h.881v2.659h.021a1.483,1.483,0,0,1,.631-.546,1.892,1.892,0,0,1,.9-.22,1.638,1.638,0,0,1,1.691,1.822v2.536h-.881v-2.448c0-.7-.29-1.268-1.121-1.268a1.266,1.266,0,0,0-1.181.775.837.837,0,0,0-.06.37v2.571H537.7Z" transform="translate(-475.733 -962.607)"/><path d="M562.294,973.767a1.464,1.464,0,0,0,1.652,1.48,3.748,3.748,0,0,0,1.342-.212l.16.546a4.419,4.419,0,0,1-1.622.273,2.128,2.128,0,0,1-2.383-2.148,2.193,2.193,0,0,1,2.282-2.307,1.882,1.882,0,0,1,1.992,2.008,1.756,1.756,0,0,1-.029.369Zm2.573-.555a1.153,1.153,0,0,0-1.212-1.259,1.356,1.356,0,0,0-1.351,1.259Z" transform="translate(-494.266 -969.514)"/></g></g></g></svg>